<svg xmlns="http://www.w3.org/2000/svg" width="51" height="60" fill="none">
  <path fill="#5869FC"
    d="M8.675 59.486a1.24 1.24 0 0 0 1.24-1.24V29.741a1.24 1.24 0 0 0-1.24-1.24H1.24A1.24 1.24 0 0 0 0 29.742v28.505a1.24 1.24 0 0 0 1.24 1.24zM2.48 30.98h4.957v26.026H2.48zm19.83-3.719h-7.437a1.24 1.24 0 0 0-1.24 1.24v29.744a1.24 1.24 0 0 0 1.24 1.24h7.436a1.24 1.24 0 0 0 1.24-1.24V28.502a1.24 1.24 0 0 0-1.24-1.24m-1.24 29.745h-4.957V29.74h4.957zm16.108 1.24V11.15a1.237 1.237 0 0 0-1.236-1.236h-7.436a1.236 1.236 0 0 0-1.236 1.236v47.095a1.236 1.236 0 0 0 1.236 1.236h7.436a1.236 1.236 0 0 0 1.236-1.236m-2.472-1.237h-4.964V12.387h4.964zm16.105 1.236V1.236A1.236 1.236 0 0 0 49.574 0h-7.436a1.236 1.236 0 0 0-1.236 1.236v57.01a1.236 1.236 0 0 0 1.236 1.236h7.436a1.236 1.236 0 0 0 1.236-1.236m-2.472-1.236h-4.964V2.472h4.964z" />
</svg>