<svg width="24" height="24" fill="none" stroke="currentColor"
  color="var(--token-88bafe50-88d2-4e0d-a38f-fa92c1938e4d, rgb(255, 130, 92)) /* {&quot;name&quot;:&quot;Color / 03&quot;} */"
  style="width:100%;height:100%">
  <path stroke-linecap="round" stroke-linejoin="round" stroke-width="2"
    d="M9 19v-6a2 2 0 0 0-2-2H5a2 2 0 0 0-2 2v6a2 2 0 0 0 2 2h2a2 2 0 0 0 2-2m0 0V9a2 2 0 0 1 2-2h2a2 2 0 0 1 2 2v10m-6 0a2 2 0 0 0 2 2h2a2 2 0 0 0 2-2m0 0V5a2 2 0 0 1 2-2h2a2 2 0 0 1 2 2v14a2 2 0 0 1-2 2h-2a2 2 0 0 1-2-2" />
</svg>