<svg width="70" height="70" viewBox="0 0 70 70" fill="none" xmlns="http://www.w3.org/2000/svg" id="svg-1756709630_1923"><path fill-rule="evenodd" clip-rule="evenodd" d="M10.6538 48.8285C10.1108 49.7501 9.50103 50.8194 8.98312 51.6714C8.51954 52.4866 8.76841 53.5381 9.5428 54.036L20.4023 60.9909C20.7835 61.2358 21.2432 61.3111 21.6783 61.2C22.1134 61.0888 22.4874 60.8005 22.7162 60.3997C23.1506 59.6434 23.7103 58.661 24.3201 57.6091C28.6221 50.2195 32.9492 51.1237 40.7514 55.001L51.519 60.3301C51.9268 60.5322 52.3958 60.5537 52.8192 60.3899C53.2425 60.2262 53.5841 59.891 53.7661 59.4608L58.9369 47.2898C59.3022 46.4205 58.9305 45.4069 58.1015 45.0121C55.8294 43.8993 51.3102 41.6824 47.242 39.6394C32.6067 32.2412 20.1684 32.7194 10.6538 48.8285Z" fill="url(#svg-1756709630_1923_paint0_linear_8330_427)"/><path fill-rule="evenodd" clip-rule="evenodd" d="M59.3456 21.2089C59.8885 20.2874 60.4983 19.2181 61.0162 18.3661C61.4798 17.5508 61.231 16.4994 60.4566 16.0015L49.597 9.04661C49.2127 8.77723 48.7382 8.68605 48.2868 8.79484C47.8354 8.90363 47.4477 9.20262 47.2163 9.62039C46.7819 10.3767 46.2222 11.3591 45.6124 12.411C41.3104 19.8006 36.9833 18.8964 29.1812 15.0191L18.447 9.71602C18.0391 9.51401 17.5701 9.49244 17.1468 9.65622C16.7234 9.82 16.3819 10.1552 16.1999 10.5854L11.0291 22.7564C10.6637 23.6256 11.0355 24.6392 11.8644 25.0341C14.1366 26.1469 18.6558 28.3637 22.7239 30.4067C37.3926 37.7963 49.8309 37.3007 59.3456 21.2089Z" fill="url(#svg-1756709630_1923_paint1_linear_8330_427)"/><defs><linearGradient id="svg-1756709630_1923_paint0_linear_8330_427" x1="58.6445" y1="64.5813" x2="45.6456" y2="35.9267" gradientUnits="userSpaceOnUse"><stop offset="0.18" stop-color="#0052CC"/><stop offset="1" stop-color="#2684FF"/></linearGradient><linearGradient id="svg-1756709630_1923_paint1_linear_8330_427" x1="11.3549" y1="5.44747" x2="24.3741" y2="34.1153" gradientUnits="userSpaceOnUse"><stop offset="0.18" stop-color="#0052CC"/><stop offset="1" stop-color="#2684FF"/></linearGradient></defs></svg>