<svg xmlns="http://www.w3.org/2000/svg" width="70" height="70" fill="none"><path fill="url(#a)" d="M4.375 25.375c0-7.35 0-11.026 1.43-13.834a13.13 13.13 0 0 1 5.736-5.735c2.808-1.431 6.483-1.431 13.834-1.431h19.25c7.35 0 11.026 0 13.834 1.43a13.13 13.13 0 0 1 5.736 5.736c1.43 2.808 1.43 6.483 1.43 13.834v19.25c0 7.35 0 11.026-1.43 13.834a13.13 13.13 0 0 1-5.736 5.736c-2.808 1.43-6.483 1.43-13.834 1.43h-19.25c-7.35 0-11.026 0-13.834-1.43a13.13 13.13 0 0 1-5.735-5.736c-1.431-2.808-1.431-6.483-1.431-13.834z"/><path fill="#fff" d="M53.102 21.933c-3.311-2.8-7.285-4.2-11.48-4.433l-.662.7c3.753.933 7.065 2.8 10.155 5.367-3.753-2.1-7.947-3.5-12.362-3.967-1.325-.233-2.428-.233-3.753-.233s-2.428 0-3.753.233c-4.415.467-8.61 1.867-12.362 3.967C21.975 21 25.287 19.133 29.04 18.2l-.663-.7c-4.194.233-8.168 1.633-11.48 4.433-3.752 7.467-5.739 15.867-5.96 24.5 3.312 3.734 7.948 6.067 12.804 6.067 0 0 1.546-1.867 2.65-3.5-2.87-.7-5.52-2.333-7.285-4.9 1.545.933 3.09 1.867 4.635 2.567 1.987.933 3.974 1.4 5.96 1.866 1.767.234 3.533.467 5.299.467s3.532-.233 5.298-.467c1.987-.466 3.974-.933 5.96-1.866 1.546-.7 3.091-1.634 4.636-2.567-1.766 2.567-4.415 4.2-7.285 4.9 1.104 1.633 2.65 3.5 2.65 3.5 4.856 0 9.492-2.333 12.804-6.067-.221-8.633-2.208-17.033-5.96-24.5m-25.387 20.3c-2.207 0-4.194-2.1-4.194-4.666s1.986-4.667 4.194-4.667 4.194 2.1 4.194 4.667-1.986 4.666-4.194 4.666m14.57 0c-2.208 0-4.194-2.1-4.194-4.666s1.986-4.667 4.194-4.667 4.194 2.1 4.194 4.667-1.986 4.666-4.194 4.666"/><defs><linearGradient id="a" x1="35" x2="35" y1="4.375" y2="65.625" gradientUnits="userSpaceOnUse"><stop stop-color="#687EC9"/><stop offset="1" stop-color="#5971C3"/></linearGradient></defs></svg>