<svg width="70" height="70" viewBox="0 0 70 70" fill="none" xmlns="http://www.w3.org/2000/svg" id="svg1495286806_1165"><path fill-rule="evenodd" clip-rule="evenodd" d="M35 35C35 29.5634 39.4072 25.1562 44.8438 25.1562C50.2803 25.1562 54.6875 29.5634 54.6875 35C54.6875 40.4366 50.2803 44.8438 44.8438 44.8438C39.4072 44.8438 35 40.4366 35 35Z" fill="#1ABCFE"/><path fill-rule="evenodd" clip-rule="evenodd" d="M15.3125 54.6875C15.3125 49.2509 19.7197 44.8438 25.1562 44.8438H35V54.6875C35 60.1241 30.5928 64.5312 25.1562 64.5312C19.7197 64.5312 15.3125 60.1241 15.3125 54.6875Z" fill="#0ACF83"/><path fill-rule="evenodd" clip-rule="evenodd" d="M35 5.46875V25.1562H44.8438C50.2803 25.1562 54.6875 20.7491 54.6875 15.3125C54.6875 9.87595 50.2803 5.46875 44.8438 5.46875H35Z" fill="#FF7262"/><path fill-rule="evenodd" clip-rule="evenodd" d="M15.3125 15.3125C15.3125 20.7491 19.7197 25.1562 25.1562 25.1562H35V5.46875H25.1562C19.7197 5.46875 15.3125 9.87595 15.3125 15.3125Z" fill="#F24E1E"/><path fill-rule="evenodd" clip-rule="evenodd" d="M15.3125 35C15.3125 40.4366 19.7197 44.8438 25.1562 44.8438H35V25.1562H25.1562C19.7197 25.1562 15.3125 29.5634 15.3125 35Z" fill="#A259FF"/></svg>