<svg width="70" height="70" viewBox="0 0 70 70" fill="none" xmlns="http://www.w3.org/2000/svg" id="svg-1441680843_1865"><circle cx="35" cy="35" r="30.625" fill="#3290E8"/><path fill-rule="evenodd" clip-rule="evenodd" d="M48.125 17.5H21.875C19.49 17.4963 17.5042 19.4944 17.5 21.875V48.125C17.5 50.541 19.4593 52.5 21.875 52.5H48.125C50.51 52.5037 52.4958 50.5056 52.5 48.125V21.875C52.5 19.459 50.5417 17.5 48.125 17.5ZM39.6657 23.9167C39.6657 23.2731 40.189 22.75 40.8333 22.75C41.4777 22.75 42 23.2731 42 23.9167V39.5043C42 40.1479 41.4767 40.671 40.8333 40.671C40.2157 40.6715 39.6682 40.124 39.6667 39.5043L39.6657 23.9167ZM33.8324 23.3265C33.8324 22.6819 34.3556 22.1599 35 22.1599C35.6444 22.1599 36.1676 22.6819 36.1676 23.3265V40.2432C36.1676 40.8878 35.6444 41.4099 35 41.4099C34.3823 41.4104 33.8349 40.8629 33.8333 40.2432L33.8324 23.3265ZM28 23.9167C28 23.2731 28.5233 22.75 29.1667 22.75C29.811 22.75 30.3333 23.2731 30.3333 23.9167V39.5043C30.3333 40.1479 29.811 40.671 29.1667 40.671C28.549 40.6715 28.0015 40.124 28 39.5043V23.9167ZM22.1667 26.25C22.1667 25.6054 22.689 25.0833 23.3333 25.0833C23.9777 25.0833 24.5 25.6054 24.5 26.25V36.7432C24.5 37.3878 23.9767 37.9099 23.3333 37.9099C22.6973 37.9109 22.1677 37.3781 22.1667 36.7432V26.25ZM47.4264 44.0456C47.2471 44.2011 42.9244 47.8265 35 47.8265C27.0756 47.8265 22.7558 44.2001 22.5736 44.0446C22.0916 43.6316 22.0346 42.8822 22.4477 42.4006C22.8504 41.9318 23.6189 41.8717 24.0891 42.2722C24.157 42.3296 28.0165 45.4932 34.999 45.4932C42.0688 45.4932 45.8692 42.3062 45.906 42.2751C46.3756 41.8716 47.147 41.9304 47.5504 42.4006C47.9662 42.8813 47.9099 43.6327 47.4264 44.0456ZM47.8333 36.7442C47.8333 37.3878 47.3101 37.9108 46.6667 37.9108C46.0306 37.9119 45.5011 37.3791 45.5 36.7442V26.25C45.5 25.6054 46.0223 25.0833 46.6657 25.0833C47.3101 25.0833 47.8333 25.6054 47.8333 26.25V36.7442Z" fill="white"/></svg>