<svg width="70" height="70" viewBox="0 0 70 70" fill="none" xmlns="http://www.w3.org/2000/svg" id="svg1967180343_1320"><path d="M64.8916 33.286L37.6414 6.92978L35 4.375L14.4871 24.215L5.10838 33.286C4.13054 34.233 4.13054 35.767 5.10838 36.714L23.8492 54.84L35 65.625L55.5129 45.785L55.8305 45.4778L64.8916 36.714C65.8695 35.767 65.8695 34.233 64.8916 33.286ZM35 44.0549L25.638 35L35 25.9451L44.362 35L35 44.0549Z" fill="#2684FF"/><path fill-rule="evenodd" clip-rule="evenodd" d="M35 25.9451C28.8704 20.0159 28.8406 10.4125 34.9331 4.44775L14.4453 24.2554L25.5962 35.0404L35 25.9451Z" fill="url(#svg1967180343_1320_paint0_linear_8330_486)"/><path fill-rule="evenodd" clip-rule="evenodd" d="M44.3871 34.9756L35 44.0547C37.9585 46.9145 39.6208 50.7942 39.6208 54.8398C39.6208 58.8853 37.9585 62.7651 35 65.6248L55.538 45.7606L44.3871 34.9756Z" fill="url(#svg1967180343_1320_paint1_linear_8330_486)"/><defs><linearGradient id="svg1967180343_1320_paint0_linear_8330_486" x1="33.3282" y1="16.7851" x2="17.7111" y2="23.6037" gradientUnits="userSpaceOnUse"><stop offset="0.18" stop-color="#0052CC"/><stop offset="1" stop-color="#2684FF"/></linearGradient><linearGradient id="svg1967180343_1320_paint1_linear_8330_486" x1="36.7888" y1="53.1097" x2="52.3778" y2="46.3394" gradientUnits="userSpaceOnUse"><stop offset="0.18" stop-color="#0052CC"/><stop offset="1" stop-color="#2684FF"/></linearGradient></defs></svg>