<svg width="70" height="70" viewBox="0 0 70 70" fill="none" xmlns="http://www.w3.org/2000/svg" id="svg-2008555184_6532"><path d="M35 4.375C18.1084 4.375 4.375 18.1084 4.375 35C4.375 51.8916 18.1084 65.625 35 65.625C51.8916 65.625 65.625 51.8916 65.625 35C65.625 18.1084 51.8916 4.375 35 4.375Z" fill="#FDDD4C"/><path d="M21.5881 42.9847C20.9184 41.9709 22.6027 40.4365 21.9177 39.1482C21.5228 38.4052 20.8773 37.9422 20.1021 37.845C19.3581 37.7516 18.5917 38.024 18.1032 38.5563C17.3319 39.3956 17.212 40.5381 17.3611 40.9423C17.4157 41.0905 17.5015 41.131 17.563 41.1396C17.9831 41.1949 18.2194 40.1167 18.3645 39.8922C18.7655 39.2733 19.676 39.086 20.3049 39.4928C21.4972 40.264 20.4633 41.5104 20.5526 42.5632C20.6393 43.5882 21.278 44.0002 21.8514 44.0435C22.4091 44.0647 22.7991 43.7547 22.8976 43.5285C23.1337 42.9886 22.1391 43.8189 21.5881 42.9847Z" fill="#181C39"/><path d="M46.5012 33.6784C46.1885 33.6351 45.8466 33.6362 45.491 33.6784C45.221 33.3377 44.9791 32.7861 44.8426 32.1423C44.5998 30.9969 44.6252 30.1672 45.3029 30.0594C45.9805 29.9516 46.3082 30.6446 46.551 31.79C46.7138 32.56 46.6826 33.2674 46.5012 33.6784Z" fill="#181C39"/><path d="M39.0788 34.3598C39.1056 34.6192 39.1151 34.8817 39.1075 35.1233C39.7632 35.1618 40.2277 35.4733 40.3513 35.6708C40.4147 35.7729 40.3894 35.8393 40.3689 35.8701C40.3011 35.9757 40.1556 35.9593 39.8508 35.9252C39.5847 35.8953 39.298 35.869 39.0001 35.8827C38.838 36.3798 38.3574 36.4264 38.0197 36.0587C37.7838 36.1306 37.3204 36.4265 37.1824 36.1049C37.1811 35.9454 37.348 35.7134 37.6502 35.5086C37.4439 35.1152 37.3057 34.6939 37.224 34.2577C36.7956 34.3349 36.4102 34.4549 36.1082 34.549C35.9663 34.5931 35.4052 34.8466 35.3395 34.5609C35.2956 34.3636 35.6028 34.0383 35.9275 33.8034C36.2903 33.5459 36.6928 33.3628 37.11 33.2571C37.1011 32.6359 37.2596 32.2025 37.7109 32.1307C38.2706 32.0417 38.6174 32.4725 38.8574 33.2704C39.5338 33.4583 40.2092 33.9243 40.5074 34.406C40.6234 34.5927 40.6458 34.7371 40.5708 34.8131C40.3833 35.0074 39.3448 34.4442 39.0788 34.3598Z" fill="#181C39"/><path d="M43.5262 37.152C43.9553 37.3599 44.4272 37.2781 44.5813 36.9692C44.7353 36.6602 44.512 36.2415 44.083 36.0336C43.654 35.8257 43.182 35.9075 43.028 36.2165C42.8739 36.5254 43.0972 36.9441 43.5262 37.152Z" fill="#181C39"/><path d="M45.6382 35.6178C45.646 35.1452 45.9356 34.7679 46.2837 34.7737C46.6318 34.7804 46.9077 35.1674 46.8999 35.639C46.8921 36.1106 46.6025 36.4879 46.2544 36.4821C45.9063 36.4764 45.6304 36.0894 45.6382 35.6178Z" fill="#181C39"/><path fill-rule="evenodd" clip-rule="evenodd" d="M55.0779 41.4053C55.0751 41.3955 55.0848 41.4294 55.0779 41.4053C55.7771 41.4053 56.875 42.1984 56.875 44.1148C56.875 46.0215 56.0735 48.1813 55.8843 48.6606C52.9971 55.4905 46.1063 59.2924 37.8981 59.0517C30.2457 58.8275 23.7195 54.8418 20.8635 48.344C19.1367 48.3459 17.3562 47.5961 16.0028 46.4122C14.5763 45.1648 13.6967 43.5507 13.5251 41.8673C13.3915 40.5564 13.5544 39.3369 13.9707 38.2734L12.3667 36.9316C5.02638 30.814 27.9845 5.62548 35.3268 11.9472C35.3639 11.9789 37.825 14.3621 37.8308 14.3678C41.3711 12.8841 50.8569 10.059 50.8676 16.6355C50.8715 18.8194 49.4615 21.3661 47.2023 23.6771C49.8132 26.0672 49.1247 29.4623 49.5405 32.5773L50.4473 32.8256C52.1761 33.304 53.4057 33.9421 54.0073 34.5658C54.6089 35.1886 54.9073 35.792 55.0155 36.4995C55.1169 37.0702 55.1033 38.078 54.3408 39.2051C54.6154 39.9321 54.866 40.657 55.0779 41.4053ZM20.7339 46.572C20.9903 46.5778 21.2448 46.5614 21.4944 46.5191C24.1768 46.0677 24.8789 43.1917 24.4372 40.3678C23.938 37.179 21.7528 36.0548 20.2697 35.9749C19.8573 35.9537 19.4741 35.9903 19.1581 36.0529C16.5108 36.5794 15.016 38.8027 15.3105 41.6902C15.5767 44.3034 18.2542 46.5065 20.7339 46.572ZM14.7381 36.8364C15.6264 35.563 17.0783 34.6419 18.7262 34.3252C20.8236 28.7677 24.326 23.6473 28.9615 20.1236C32.4016 17.2909 36.1118 15.2591 36.1118 15.2591C36.1118 15.2591 34.1138 12.9722 33.5103 12.8038C29.7982 11.8143 21.7811 17.2717 16.6619 24.4827C14.5909 27.4 11.6257 32.5667 13.0434 35.2242C13.218 35.5533 14.2077 36.3994 14.7381 36.8364ZM44.8338 45.2957C44.8397 45.3554 44.8026 45.417 44.749 45.4391C44.749 45.4391 41.7662 46.8088 37.0283 45.3621C37.1987 46.7823 38.921 47.3205 40.1242 47.5152C45.9951 48.5124 51.4838 45.1985 52.7192 44.364C52.9314 44.2208 52.7166 44.5891 52.6783 44.6432C51.1659 46.5691 47.0999 48.7992 41.8101 48.7983C39.5031 48.7973 37.197 47.9955 36.3507 46.7626C35.0372 44.8501 36.2853 42.0579 38.4744 42.3486C42.1745 42.761 45.9679 42.4511 49.3933 40.8817C52.3799 39.5131 53.5081 38.0077 53.3384 36.7882C53.0753 34.8983 50.2733 34.6028 48.857 34.1433C48.2407 33.9421 47.9365 33.7814 47.8673 32.637C47.837 32.1374 47.7493 30.3944 47.7171 29.6735C47.6605 28.4116 47.5065 26.6859 46.4222 25.9736C46.1394 25.7879 45.8255 25.6983 45.4949 25.681C45.2313 25.6684 45.0751 25.7046 44.991 25.7241C44.9722 25.7285 44.9569 25.732 44.945 25.734C44.3595 25.8322 44.0007 26.1284 43.5776 26.4777C43.5532 26.4979 43.5287 26.5182 43.5038 26.5386C42.1514 27.6513 41.0096 27.8332 39.739 27.7793C39.3434 27.7627 38.9355 27.7232 38.5053 27.6815C38.1096 27.6431 37.695 27.603 37.2536 27.5771L36.7144 27.5463C34.5867 27.4385 32.3051 29.2519 31.9258 31.8275C31.502 34.7024 33.1089 36.4634 34.154 37.6086C34.4122 37.8916 34.6361 38.137 34.7866 38.3523C34.8832 38.4822 34.9953 38.6651 34.9953 38.8393C34.9953 39.0472 34.8588 39.2118 34.7252 39.3523C32.5547 41.5555 31.8604 45.0561 32.6785 47.9734C32.7809 48.3372 32.9106 48.6856 33.0637 49.0187C34.9826 53.4452 40.9364 55.5069 46.7518 53.6319C50.8275 52.3177 54.4285 49.1422 55.1618 44.7615C55.3363 43.62 55.0799 43.1792 54.7308 42.9665C54.3613 42.7422 53.9186 42.8202 53.9186 42.8202C53.9186 42.8202 53.7167 41.4563 53.1453 40.2166C51.4497 41.5372 49.2675 42.465 47.6059 42.9357C44.9439 43.6895 42.0683 43.983 39.3175 43.6276C38.2017 43.4834 37.452 43.3865 37.1307 44.417C40.7999 45.7433 44.6836 45.1754 44.6836 45.1754C44.7587 45.1677 44.826 45.2216 44.8338 45.2957ZM34.2474 19.5576C32.2407 20.5711 30 22.3758 28.1805 24.4519C28.1161 24.526 28.2117 24.628 28.2907 24.5713C29.8625 23.4423 32.0174 22.3931 34.8403 21.7136C38.0024 20.9523 41.0466 21.2718 42.9061 21.6924C42.9997 21.7136 43.0582 21.5548 42.9753 21.5086C41.7467 20.8281 39.8609 20.3661 38.5231 20.3565C38.4578 20.3555 38.4207 20.2804 38.4597 20.2285C38.6908 19.9214 39.0077 19.6183 39.2973 19.3988C39.3617 19.3488 39.3227 19.2458 39.2408 19.2506C37.5766 19.3515 33.7755 21.0846 33.7891 21.0216C33.8866 20.5596 34.1938 19.9494 34.3527 19.6645C34.3908 19.5971 34.3167 19.523 34.2474 19.5576Z" fill="#181C39"/></svg>