<svg width="60" height="60" fill="none" xmlns="http://www.w3.org/2000/svg" id="svg716332825_1483"><path fill-rule="evenodd" clip-rule="evenodd" d="M10.717 54.783 4.27 46.75a10.787 10.787 0 0 1-2.394-6.757v-29.09c0-3.664 2.932-6.705 6.714-6.963l29.909-2.042a9.748 9.748 0 0 1 6.117 1.636l10.509 7.105c1.88 1.271 3.001 3.35 3.001 5.569v33.073c0 3.586-2.883 6.555-6.586 6.783l-33.195 2.044c-2.955.181-5.812-1.064-7.627-3.325Z" fill="#fff"/><g fill="#000"><path d="M21.09 25.46v-.381c0-.965.773-1.766 1.77-1.833l7.258-.484 10.039 14.782V24.57l-2.584-.344v-.181c0-.977.79-1.783 1.8-1.835l6.605-.338v.95a.928.928 0 0 1-.787.905l-1.59.269v21.01l-1.994.687c-1.667.573-3.522-.04-4.476-1.48l-9.745-14.706v14.036l3 .574-.042.278c-.131.872-.884 1.53-1.794 1.571l-7.46.332c-.099-.937.604-1.775 1.573-1.877l.98-.103V25.603l-2.553-.143Z"/><path fill-rule="evenodd" clip-rule="evenodd" d="M38.765 5.563 8.856 7.605c-1.792.122-3.18 1.562-3.18 3.298v29.09c0 1.631.561 3.216 1.596 4.504l6.448 8.034c1.043 1.299 2.684 2.014 4.381 1.91l33.196-2.044c1.701-.104 3.026-1.469 3.026-3.116V16.208c0-1.02-.515-1.975-1.38-2.56L42.436 6.545a5.85 5.85 0 0 0-3.67-.981Zm-28.426 5.794c-.416-.308-.218-.95.305-.987l28.322-2.032c.902-.065 1.8.184 2.529.701l5.683 4.026c.215.153.114.483-.153.497l-29.993 1.632a3.893 3.893 0 0 1-2.526-.752l-4.167-3.085Zm5.286 8.95c0-.974.787-1.779 1.794-1.834l31.711-1.727c.981-.053 1.807.701 1.807 1.651v28.638c0 .972-.784 1.776-1.789 1.834l-31.51 1.792c-1.092.063-2.013-.776-2.013-1.833v-28.52Z"/></g></svg>