<svg width="50" height="50" viewBox="0 0 50 50" fill="none" xmlns="http://www.w3.org/2000/svg" id="svg615664397_1743"><path d="M44.6879 23.1242C47.2765 23.1242 49.375 21.0257 49.375 18.4371C49.375 15.8485 47.2763 13.75 44.6877 13.75C42.0989 13.75 40 15.8487 40 18.4375V23.1242H44.6879ZM31.5625 23.1242C34.1513 23.1242 36.25 21.0255 36.25 18.4367V5.3125C36.25 2.72366 34.1513 0.625 31.5625 0.625C28.9737 0.625 26.875 2.72367 26.875 5.3125V18.4367C26.875 21.0255 28.9737 23.1242 31.5625 23.1242Z" fill="#2EB67D"/><path d="M5.3121 26.8758C2.72349 26.8758 0.625002 28.9743 0.625002 31.5629C0.625002 34.1515 2.72369 36.25 5.3123 36.25C7.90113 36.25 10 34.1513 10 31.5625V26.8758H5.3121ZM18.4375 26.8758C15.8487 26.8758 13.75 28.9745 13.75 31.5633V44.6875C13.75 47.2763 15.8487 49.375 18.4375 49.375C21.0263 49.375 23.125 47.2763 23.125 44.6875V31.5633C23.125 28.9745 21.0263 26.8758 18.4375 26.8758Z" fill="#E01E5A"/><path d="M26.8758 44.6879C26.8758 47.2765 28.9743 49.375 31.5629 49.375C34.1515 49.375 36.25 47.2763 36.25 44.6877C36.25 42.0989 34.1513 40 31.5625 40L26.8758 40L26.8758 44.6879ZM26.8758 31.5625C26.8758 34.1513 28.9745 36.25 31.5633 36.25L44.6875 36.25C47.2763 36.25 49.375 34.1513 49.375 31.5625C49.375 28.9737 47.2763 26.875 44.6875 26.875L31.5633 26.875C28.9745 26.875 26.8758 28.9737 26.8758 31.5625Z" fill="#ECB22E"/><path d="M23.1242 5.3121C23.1242 2.72349 21.0257 0.625005 18.4371 0.625005C15.8485 0.625004 13.75 2.72369 13.75 5.3123C13.75 7.90114 15.8487 10 18.4375 10L23.1242 10L23.1242 5.3121ZM23.1242 18.4375C23.1242 15.8487 21.0255 13.75 18.4367 13.75L5.3125 13.75C2.72366 13.75 0.625 15.8487 0.625 18.4375C0.625 21.0263 2.72367 23.125 5.3125 23.125L18.4367 23.125C21.0255 23.125 23.1242 21.0263 23.1242 18.4375Z" fill="#36C5F0"/></svg>