<svg width="70" height="70" viewBox="0 0 70 70" fill="none" xmlns="http://www.w3.org/2000/svg" id="svg-425344602_2569"><path fill-rule="evenodd" clip-rule="evenodd" d="M35 67.8125C51.9137 67.8125 65.625 54.1012 65.625 37.1875C65.625 20.2738 51.9137 6.5625 35 6.5625C18.0863 6.5625 4.375 20.2738 4.375 37.1875C4.375 42.68 5.82093 47.8349 8.35291 52.2921L4.375 67.8125L20.3763 64.1021C24.7218 66.4681 29.7039 67.8125 35 67.8125ZM35 63.101C49.3116 63.101 60.9135 51.4991 60.9135 37.1875C60.9135 22.8759 49.3116 11.274 35 11.274C20.6884 11.274 9.08654 22.8759 9.08654 37.1875C9.08654 42.7133 10.8161 47.8351 13.7634 52.0411L11.4423 60.7452L20.2998 58.5308C24.4767 61.4131 29.5413 63.101 35 63.101Z" fill="#BFC8D0"/><path d="M61.25 35C61.25 49.4975 49.4975 61.25 35 61.25C29.4704 61.25 24.3401 59.5402 20.1089 56.6205L11.1364 58.8636L13.4876 50.0465C10.502 45.7859 8.75 40.5975 8.75 35C8.75 20.5025 20.5025 8.75 35 8.75C49.4975 8.75 61.25 20.5025 61.25 35Z" fill="url(#svg-425344602_2569_paint0_linear_8330_523)"/><path fill-rule="evenodd" clip-rule="evenodd" d="M35 65.625C51.9137 65.625 65.625 51.9137 65.625 35C65.625 18.0863 51.9137 4.375 35 4.375C18.0863 4.375 4.375 18.0863 4.375 35C4.375 40.4925 5.82093 45.6474 8.35291 50.1046L4.375 65.625L20.3763 61.9146C24.7218 64.2806 29.7039 65.625 35 65.625ZM35 60.9135C49.3116 60.9135 60.9135 49.3116 60.9135 35C60.9135 20.6884 49.3116 9.08654 35 9.08654C20.6884 9.08654 9.08654 20.6884 9.08654 35C9.08654 40.5258 10.8161 45.6476 13.7634 49.8536L11.4423 58.5577L20.2998 56.3433C24.4767 59.2256 29.5413 60.9135 35 60.9135Z" fill="white"/><path d="M27.3438 20.7813C26.6157 19.3188 25.4987 19.4482 24.3702 19.4482C22.3535 19.4482 19.209 21.8639 19.209 26.3595C19.209 30.044 20.8325 34.0772 26.3034 40.1105C31.5832 45.9331 38.5205 48.9452 44.2798 48.8426C50.0391 48.7401 51.224 43.784 51.224 42.1104C51.224 41.3685 50.7637 40.9984 50.4465 40.8978C48.4839 39.9559 44.8642 38.2009 44.0406 37.8712C43.2169 37.5414 42.7869 37.9874 42.5196 38.23C41.7727 38.9418 40.2921 41.0395 39.7852 41.5113C39.2783 41.9831 38.5225 41.7443 38.208 41.566C37.0506 41.1015 33.9127 39.7057 31.4113 37.281C28.3179 34.2823 28.1363 33.2506 27.5535 32.3322C27.0873 31.5975 27.4294 31.1467 27.6001 30.9497C28.2666 30.1807 29.1869 28.9934 29.5997 28.4033C30.0124 27.8133 29.6847 26.9175 29.4881 26.3596C28.6426 23.96 27.9263 21.9513 27.3438 20.7813Z" fill="white"/><defs><linearGradient id="svg-425344602_2569_paint0_linear_8330_523" x1="57.9687" y1="15.3125" x2="8.75" y2="61.25" gradientUnits="userSpaceOnUse"><stop stop-color="#5BD066"/><stop offset="1" stop-color="#27B43E"/></linearGradient></defs></svg>