<svg width="60" height="60" fill="none" xmlns="http://www.w3.org/2000/svg" id="svg-1593847828_647"><path d="M35.54 35.554a15.856 15.856 0 0 1-11.114 0 15.834 15.834 0 0 1-.002-11.107 15.846 15.846 0 0 1 11.117 0 15.83 15.83 0 0 1 0 11.107Zm20.345-9.929H40.553l10.84-10.835a26.42 26.42 0 0 0-6.191-6.187L34.36 19.438V4.116a26.462 26.462 0 0 0-8.755 0v15.322L14.763 8.603a26.45 26.45 0 0 0-6.192 6.187l10.843 10.835H4.082c-.379 2.979-.502 5.778 0 8.75h15.332L8.571 45.21a26.444 26.444 0 0 0 6.192 6.188l10.842-10.836v15.324c2.894.484 5.86.484 8.755 0V40.562l10.843 10.836a26.446 26.446 0 0 0 6.19-6.188L40.552 34.375h15.334a26.41 26.41 0 0 0 0-8.75Z" fill="#FF4A00"/></svg>